{
	"asset":
	{
		"version": "2.0",
		"generator": "Unreal Engine 5.1.0 glTF Exporter 1.3.1"
	},
	"scene": 0,
	"accessors": [
		{
			"bufferView": 0,
			"count": 3036,
			"type": "SCALAR",
			"componentType": 5123
		},
		{
			"bufferView": 1,
			"count": 1224,
			"type": "VEC3",
			"componentType": 5126,
			"min": [ -1.25410795, -1.51671183, -0.249725387 ],
			"max": [ 1.25410795, 1.51671183, 0.249725372 ]
		},
		{
			"bufferView": 2,
			"count": 1224,
			"type": "VEC4",
			"componentType": 5121,
			"normalized": true
		},
		{
			"bufferView": 3,
			"count": 1224,
			"type": "VEC3",
			"componentType": 5126
		},
		{
			"bufferView": 4,
			"count": 1224,
			"type": "VEC4",
			"componentType": 5126
		},
		{
			"bufferView": 5,
			"count": 1224,
			"type": "VEC2",
			"componentType": 5126
		},
		{
			"bufferView": 6,
			"count": 1224,
			"type": "VEC2",
			"componentType": 5126
		},
		{
			"bufferView": 7,
			"count": 1224,
			"type": "VEC2",
			"componentType": 5126
		},
		{
			"bufferView": 8,
			"count": 38097,
			"type": "SCALAR",
			"componentType": 5123
		},
		{
			"bufferView": 9,
			"count": 16854,
			"type": "VEC3",
			"componentType": 5126,
			"min": [ -1.25381172, -1.51622903, -0.319901407 ],
			"max": [ 1.25381172, 1.51622903, 0.319901407 ]
		},
		{
			"bufferView": 10,
			"count": 16854,
			"type": "VEC4",
			"componentType": 5121,
			"normalized": true
		},
		{
			"bufferView": 11,
			"count": 16854,
			"type": "VEC3",
			"componentType": 5126
		},
		{
			"bufferView": 12,
			"count": 16854,
			"type": "VEC4",
			"componentType": 5126
		},
		{
			"bufferView": 13,
			"count": 16854,
			"type": "VEC2",
			"componentType": 5126
		},
		{
			"bufferView": 14,
			"count": 16854,
			"type": "VEC2",
			"componentType": 5126
		},
		{
			"bufferView": 15,
			"count": 16854,
			"type": "VEC2",
			"componentType": 5126
		}
	],
	"buffers": [
		{
			"uri": "SM_ModuleWall_5_5_x_6_5.bin",
			"byteLength": 1311572
		}
	],
	"bufferViews": [
		{
			"buffer": 0,
			"byteLength": 6072,
			"target": 34963
		},
		{
			"buffer": 0,
			"byteLength": 14688,
			"byteOffset": 6072,
			"target": 34962
		},
		{
			"buffer": 0,
			"byteLength": 4896,
			"byteOffset": 20760,
			"target": 34962
		},
		{
			"buffer": 0,
			"byteLength": 14688,
			"byteOffset": 25656,
			"target": 34962
		},
		{
			"buffer": 0,
			"byteLength": 19584,
			"byteOffset": 40344,
			"target": 34962
		},
		{
			"buffer": 0,
			"byteLength": 9792,
			"byteOffset": 59928,
			"target": 34962
		},
		{
			"buffer": 0,
			"byteLength": 9792,
			"byteOffset": 69720,
			"target": 34962
		},
		{
			"buffer": 0,
			"byteLength": 9792,
			"byteOffset": 79512,
			"target": 34962
		},
		{
			"buffer": 0,
			"byteLength": 76194,
			"byteOffset": 89304,
			"target": 34963
		},
		{
			"buffer": 0,
			"byteLength": 202248,
			"byteOffset": 165500,
			"target": 34962
		},
		{
			"buffer": 0,
			"byteLength": 67416,
			"byteOffset": 367748,
			"target": 34962
		},
		{
			"buffer": 0,
			"byteLength": 202248,
			"byteOffset": 435164,
			"target": 34962
		},
		{
			"buffer": 0,
			"byteLength": 269664,
			"byteOffset": 637412,
			"target": 34962
		},
		{
			"buffer": 0,
			"byteLength": 134832,
			"byteOffset": 907076,
			"target": 34962
		},
		{
			"buffer": 0,
			"byteLength": 134832,
			"byteOffset": 1041908,
			"target": 34962
		},
		{
			"buffer": 0,
			"byteLength": 134832,
			"byteOffset": 1176740,
			"target": 34962
		}
	],
	"images": [
		{
			"uri": "DMI_01_BaseColor.png"
		},
		{
			"uri": "TMI_01_SM_ModuleWall_5_5_x_6_5_BaseColor.png"
		},
		{
			"uri": "TMI_01_SM_ModuleWall_5_5_x_6_5_MetallicRoughness.png"
		},
		{
			"uri": "TMI_01_SM_ModuleWall_5_5_x_6_5_Normal.png"
		}
	],
	"materials": [
		{
			"name": "DMI_01",
			"pbrMetallicRoughness":
			{
				"baseColorTexture":
				{
					"index": 0
				},
				"metallicFactor": 0,
				"roughnessFactor": 0
			},
			"alphaMode": "BLEND"
		},
		{
			"name": "TMI_01_SM_ModuleWall_5_5_x_6_5",
			"pbrMetallicRoughness":
			{
				"baseColorTexture":
				{
					"index": 1,
					"texCoord": 2
				},
				"metallicRoughnessTexture":
				{
					"index": 2,
					"texCoord": 2
				}
			},
			"normalTexture":
			{
				"index": 3,
				"texCoord": 2
			}
		}
	],
	"meshes": [
		{
			"name": "SM_ModuleWall_5_5_x_6_5",
			"primitives": [
				{
					"attributes":
					{
						"POSITION": 1,
						"COLOR_0": 2,
						"NORMAL": 3,
						"TANGENT": 4,
						"TEXCOORD_0": 5,
						"TEXCOORD_1": 6,
						"TEXCOORD_2": 7
					},
					"indices": 0,
					"material": 0
				},
				{
					"attributes":
					{
						"POSITION": 9,
						"COLOR_0": 10,
						"NORMAL": 11,
						"TANGENT": 12,
						"TEXCOORD_0": 13,
						"TEXCOORD_1": 14,
						"TEXCOORD_2": 15
					},
					"indices": 8,
					"material": 1
				}
			]
		}
	],
	"nodes": [
		{
			"mesh": 0
		}
	],
	"samplers": [
		{
			"name": "DMI_01_BaseColor",
			"minFilter": 9987,
			"magFilter": 9729
		},
		{
			"name": "TMI_01_SM_ModuleWall_5_5_x_6_5_BaseColor",
			"minFilter": 9987,
			"magFilter": 9729
		},
		{
			"name": "TMI_01_SM_ModuleWall_5_5_x_6_5_MetallicRoughness",
			"minFilter": 9987,
			"magFilter": 9729
		},
		{
			"name": "TMI_01_SM_ModuleWall_5_5_x_6_5_Normal",
			"minFilter": 9987,
			"magFilter": 9729
		}
	],
	"scenes": [
		{
			"nodes": [ 0 ]
		}
	],
	"textures": [
		{
			"name": "DMI_01_BaseColor",
			"sampler": 0,
			"source": 0
		},
		{
			"name": "TMI_01_SM_ModuleWall_5_5_x_6_5_BaseColor",
			"sampler": 1,
			"source": 1
		},
		{
			"name": "TMI_01_SM_ModuleWall_5_5_x_6_5_MetallicRoughness",
			"sampler": 2,
			"source": 2
		},
		{
			"name": "TMI_01_SM_ModuleWall_5_5_x_6_5_Normal",
			"sampler": 3,
			"source": 3
		}
	]
}