{
    "asset" : {
        "generator" : "Khronos glTF Blender I/O v3.2.43",
        "version" : "2.0"
    },
    "scene" : 0,
    "scenes" : [
        {
            "name" : "Scene",
            "nodes" : [
                0
            ]
        }
    ],
    "nodes" : [
        {
            "mesh" : 0,
            "name" : "Pokedex"
        }
    ],
    "materials" : [
        {
            "doubleSided" : true,
            "emissiveFactor" : [
                1,
                1,
                1
            ],
            "emissiveTexture" : {
                "index" : 0
            },
            "name" : "Pokedex",
            "normalTexture" : {
                "index" : 1
            },
            "pbrMetallicRoughness" : {
                "baseColorTexture" : {
                    "index" : 2
                },
                "metallicRoughnessTexture" : {
                    "index" : 3
                }
            }
        }
    ],
    "meshes" : [
        {
            "name" : "Plane.004",
            "primitives" : [
                {
                    "attributes" : {
                        "POSITION" : 0,
                        "NORMAL" : 1,
                        "TEXCOORD_0" : 2
                    },
                    "indices" : 3,
                    "material" : 0
                }
            ]
        }
    ],
    "textures" : [
        {
            "sampler" : 0,
            "source" : 0
        },
        {
            "sampler" : 0,
            "source" : 1
        },
        {
            "sampler" : 0,
            "source" : 2
        },
        {
            "sampler" : 0,
            "source" : 3
        }
    ],
    "images" : [
        {
            "mimeType" : "image/png",
            "name" : "Pokedex_LowPoly_Pokedex_Emissive.tga",
            "uri" : "Pokedex_LowPoly_Pokedex_Emissive_tga.png"
        },
        {
            "mimeType" : "image/png",
            "name" : "Pokedex_LowPoly_Pokedex_Normal.tga",
            "uri" : "Pokedex_LowPoly_Pokedex_Normal_tga.png"
        },
        {
            "mimeType" : "image/png",
            "name" : "Pokedex_LowPoly_Pokedex_BaseColor.tga",
            "uri" : "Pokedex_LowPoly_Pokedex_BaseColor_tga.png"
        },
        {
            "mimeType" : "image/png",
            "name" : "Pokedex_LowPoly_Pokedex_Metallic.tga-Pokedex_LowPoly_Pokedex_Roughness.tga",
            "uri" : "Pokedex_LowPoly_Pokedex_Metallic_tga-Pokedex_LowPoly_Pokedex_Roughness_tga.png"
        }
    ],
    "accessors" : [
        {
            "bufferView" : 0,
            "componentType" : 5126,
            "count" : 11209,
            "max" : [
                7.310896873474121,
                27.438413619995117,
                2.162625312805176
            ],
            "min" : [
                -7.310896873474121,
                -10.728509902954102,
                -7.721705913543701
            ],
            "type" : "VEC3"
        },
        {
            "bufferView" : 1,
            "componentType" : 5126,
            "count" : 11209,
            "type" : "VEC3"
        },
        {
            "bufferView" : 2,
            "componentType" : 5126,
            "count" : 11209,
            "type" : "VEC2"
        },
        {
            "bufferView" : 3,
            "componentType" : 5123,
            "count" : 38385,
            "type" : "SCALAR"
        }
    ],
    "bufferViews" : [
        {
            "buffer" : 0,
            "byteLength" : 134508,
            "byteOffset" : 0
        },
        {
            "buffer" : 0,
            "byteLength" : 134508,
            "byteOffset" : 134508
        },
        {
            "buffer" : 0,
            "byteLength" : 89672,
            "byteOffset" : 269016
        },
        {
            "buffer" : 0,
            "byteLength" : 76770,
            "byteOffset" : 358688
        }
    ],
    "samplers" : [
        {
            "magFilter" : 9729,
            "minFilter" : 9987
        }
    ],
    "buffers" : [
        {
            "byteLength" : 435460,
            "uri" : "Pokedex_FInalMesh_RM.bin"
        }
    ]
}
